<svg width="24" height="24" viewBox="0 0 24 24" fill="none" xmlns="http://www.w3.org/2000/svg">
<path fill-rule="evenodd" clip-rule="evenodd" d="M16.4183 2.603C16.3725 2.26247 16.0828 2 15.7323 2C15.35 2 15.04 2.31236 15.04 2.69767V3.46902H8.96859V2.69767L8.96227 2.603C8.91643 2.26247 8.62678 2 8.27629 2C7.89394 2 7.58398 2.31236 7.58398 2.69767V3.48631C4.74674 3.68154 3 5.51976 3 8.48579V16.9041C3 20.0872 4.95834 22 8.09625 22H15.9036C19.0453 22 20.9999 20.1193 20.9999 16.9744V8.48579C21.009 5.51877 19.2679 3.68107 16.4246 3.48624V2.69767L16.4183 2.603ZM15.04 4.86437V5.75887L15.0464 5.85354C15.0922 6.19407 15.3819 6.45654 15.7323 6.45654C16.1147 6.45654 16.4246 6.14418 16.4246 5.75887V4.88497C18.4934 5.05699 19.622 6.30264 19.6153 8.48365V8.8877H4.38461V8.48579C4.38461 6.3061 5.51942 5.05779 7.58398 4.88509V5.75887L7.5903 5.85354C7.63615 6.19407 7.9258 6.45654 8.27629 6.45654C8.65864 6.45654 8.96859 6.14418 8.96859 5.75887V4.86437H15.04ZM4.38461 10.283V16.9041C4.38461 19.3067 5.71352 20.6047 8.09625 20.6047H15.9036C18.2946 20.6047 19.6153 19.3338 19.6153 16.9744L19.6153 10.283H4.38461ZM16.8012 13.2183C16.8012 12.833 16.4912 12.5206 16.1089 12.5206L16.0064 12.527C15.6685 12.5732 15.408 12.8651 15.408 13.2183C15.408 13.6036 15.718 13.916 16.1089 13.916L16.2028 13.9096C16.5407 13.8634 16.8012 13.5715 16.8012 13.2183ZM12.0124 12.5208C12.3947 12.5208 12.7047 12.8331 12.7047 13.2184C12.7047 13.5716 12.4442 13.8635 12.1063 13.9097L12.0124 13.9161C11.6215 13.9161 11.3115 13.6037 11.3115 13.2184C11.3115 12.8652 11.572 12.5733 11.9099 12.5271L12.0124 12.5208ZM8.60043 13.2183C8.60043 12.833 8.29047 12.5206 7.90812 12.5206L7.80563 12.527C7.46772 12.5732 7.20727 12.8651 7.20727 13.2183C7.20727 13.6036 7.51722 13.916 7.89957 13.916L8.00207 13.9096C8.33998 13.8634 8.60043 13.5715 8.60043 13.2183ZM16.1089 16.136C16.4912 16.136 16.8012 16.4484 16.8012 16.8337C16.8012 17.1869 16.5407 17.4788 16.2028 17.525L16.1089 17.5314C15.718 17.5314 15.408 17.219 15.408 16.8337C15.408 16.4805 15.6685 16.1886 16.0064 16.1424L16.1089 16.136ZM12.7047 16.8337C12.7047 16.4483 12.3947 16.136 12.0124 16.136L11.9099 16.1424C11.572 16.1886 11.3115 16.4805 11.3115 16.8337C11.3115 17.219 11.6215 17.5313 12.0124 17.5313L12.1063 17.525C12.4442 17.4788 12.7047 17.1869 12.7047 16.8337ZM7.90812 16.136C8.29047 16.136 8.60043 16.4484 8.60043 16.8337C8.60043 17.1869 8.33998 17.4788 8.00207 17.525L7.89957 17.5314C7.51722 17.5314 7.20727 17.219 7.20727 16.8337C7.20727 16.4805 7.46772 16.1886 7.80563 16.1424L7.90812 16.136Z" fill="#565656"/>
</svg>
