<svg width="34" height="34" viewBox="0 0 34 34" fill="none" xmlns="http://www.w3.org/2000/svg">
<circle cx="17.3597" cy="16.64" r="16.64" fill="#FF0000"/>
<path d="M27.8288 11.1654C27.7127 10.7012 27.476 10.2758 27.1429 9.93237C26.8097 9.58889 26.3918 9.33942 25.9313 9.20915C24.249 8.79834 17.5196 8.79834 17.5196 8.79834C17.5196 8.79834 10.7901 8.79834 9.10779 9.24827C8.64734 9.37854 8.22943 9.62801 7.89625 9.97149C7.56308 10.315 7.32644 10.7403 7.21026 11.2045C6.90236 12.9118 6.75175 14.6438 6.76032 16.3787C6.74935 18.1266 6.89997 19.8718 7.21026 21.592C7.33835 22.0418 7.58028 22.451 7.91268 22.7799C8.24508 23.1089 8.65671 23.3466 9.10779 23.47C10.7901 23.9199 17.5196 23.9199 17.5196 23.9199C17.5196 23.9199 24.249 23.9199 25.9313 23.47C26.3918 23.3397 26.8097 23.0903 27.1429 22.7468C27.476 22.4033 27.7127 21.978 27.8288 21.5138C28.1344 19.8193 28.285 18.1005 28.2788 16.3787C28.2898 14.6308 28.1391 12.8856 27.8288 11.1654Z" fill="#ECEFF4"/>
<path d="M15.3184 19.577L20.9425 16.3786L15.3184 13.1802V19.577Z" fill="#FF0000"/>
</svg>
